<svg xmlns="http://www.w3.org/2000/svg" width="15.121" height="18.146" viewBox="0 0 15.121 18.146">
  <g id="notification" transform="translate(-42.675)">
    <g id="Group_5456" data-name="Group 5456" transform="translate(42.675)">
      <g id="Group_5455" data-name="Group 5455">
        <path id="Path_6534" data-name="Path 6534" d="M57.743,15.306l-1.3-2.164a6.428,6.428,0,0,1-.916-3.307v-1.9a5.3,5.3,0,0,0-3.78-5.07V1.512a1.512,1.512,0,0,0-3.024,0V2.869a5.3,5.3,0,0,0-3.78,5.07v1.9a6.432,6.432,0,0,1-.916,3.306l-1.3,2.164a.379.379,0,0,0,.324.573H57.418a.378.378,0,0,0,.324-.572Z" transform="translate(-42.675)" fill="#55b68a"/>
      </g>
    </g>
    <g id="Group_5458" data-name="Group 5458" transform="translate(47.855 16.634)">
      <g id="Group_5457" data-name="Group 5457">
        <path id="Path_6535" data-name="Path 6535" d="M188.815,469.333a2.63,2.63,0,0,0,4.762,0Z" transform="translate(-188.815 -469.333)" fill="#55b68a"/>
      </g>
    </g>
  </g>
</svg>
