<svg xmlns="http://www.w3.org/2000/svg" width="22.848" height="22.856" viewBox="0 0 22.848 22.856">
  <path id="Icon_ionic-ios-settings" data-name="Icon ionic-ios-settings" d="M23.3,14.748A2.637,2.637,0,0,1,25,12.287,10.454,10.454,0,0,0,23.731,9.24a2.673,2.673,0,0,1-1.073.23,2.632,2.632,0,0,1-2.407-3.7A10.423,10.423,0,0,0,17.208,4.5a2.635,2.635,0,0,1-4.921,0A10.454,10.454,0,0,0,9.24,5.765a2.632,2.632,0,0,1-2.407,3.7A2.586,2.586,0,0,1,5.76,9.24,10.685,10.685,0,0,0,4.5,12.293a2.637,2.637,0,0,1,.005,4.921A10.454,10.454,0,0,0,5.77,20.262a2.633,2.633,0,0,1,3.475,3.475A10.515,10.515,0,0,0,12.293,25a2.63,2.63,0,0,1,4.91,0,10.454,10.454,0,0,0,3.048-1.265,2.635,2.635,0,0,1,3.475-3.475,10.515,10.515,0,0,0,1.265-3.048A2.65,2.65,0,0,1,23.3,14.748ZM14.8,19.013a4.27,4.27,0,1,1,4.27-4.27A4.269,4.269,0,0,1,14.8,19.013Z" transform="translate(-3.324 -3.323)" fill="#55b68a" stroke="#55b68a" stroke-width="2"/>
</svg>
